<?xml version="1.0" standalone="no"?><!DOCTYPE svg PUBLIC "-//W3C//DTD SVG 1.1//EN" "http://www.w3.org/Graphics/SVG/1.1/DTD/svg11.dtd"><svg t="1573205858096" class="icon" viewBox="0 0 1024 1024" version="1.1" xmlns="http://www.w3.org/2000/svg" p-id="2068" xmlns:xlink="http://www.w3.org/1999/xlink" width="200" height="200"><defs><style type="text/css"></style></defs><path d="M64 127.616v768.768c0 35.072 28.544 63.616 63.616 63.616h768.768a63.68 63.68 0 0 0 63.616-63.616V127.616A63.68 63.68 0 0 0 896.384 64H127.616A63.68 63.68 0 0 0 64 127.616z m-64 0C0 57.152 57.28 0 127.616 0h768.768C966.848 0 1024 57.28 1024 127.616v768.768A127.68 127.68 0 0 1 896.384 1024H127.616A127.68 127.68 0 0 1 0 896.384V127.616z" p-id="2069" fill="#d81e06"></path><path d="M791.68 314.368a32 32 0 1 1 45.248 45.248l-358.976 359.68a32 32 0 0 1-45.248 0L233.344 520a32 32 0 1 1 45.312-45.248l176.64 176.64 336.32-337.024z" p-id="2070" fill="#d81e06"></path></svg>